<mxfile host="app.diagrams.net" modified="2023-10-01T10:01:48.425Z" agent="Mozilla/5.0 (Windows NT 10.0; Win64; x64) AppleWebKit/537.36 (KHTML, like Gecko) Chrome/117.0.0.0 Safari/537.36" version="22.0.0" etag="qT2aw4nsVtLDRU-TC7yp" type="github">
  <diagram name="Page-1" id="W9tBtAYX0S0vEguvpliv">
    <mxGraphModel>
      <root>
        <mxCell id="0" />
        <mxCell id="1" parent="0" />
      </root>
    </mxGraphModel>
  </diagram>
</mxfile>
